<svg xmlns="http://www.w3.org/2000/svg" width="339.667" height="111.937" viewBox="-155.834 -51.355 339.667 111.937" enable-background="new -155.834 -51.355 339.667 111.937"><path fill="none" d="M-155.834-51.355h339.67V60.582h-339.67z"/><path d="M-112.94 53.14h-1.476c-.12-.003-.33-.05-.348-.344-.363-5.166-4.68-9.21-9.832-9.21-5.146 0-9.47 4.044-9.83 9.205-.022.297-.225.347-.347.35h-1.478c-.674 0-.725-.863-.725-1.12V38.932c0-.66.56-1.22 1.227-1.22h22.3c.663 0 1.23.56 1.23 1.22V52.02c.002.258-.05 1.12-.722 1.12zm-6.13.33c0-3.034-2.478-5.5-5.522-5.5-3.046 0-5.53 2.466-5.53 5.5 0 3.025 2.48 5.494 5.53 5.494 3.045 0 5.523-2.47 5.523-5.495zm21.947-8.976V38.69c0-1-.816-1.81-1.82-1.81h-3.516c-.993 0-1.8.81-1.8 1.81v3.032c0 1.354-1.105 2.454-2.466 2.454h-1.84v2.133h9.624c1.004 0 1.82-.816 1.82-1.816zm-43.944 13.69V32.11c0-.27-.086-.358-.346-.358-1.043 0-1.89.895-1.89 1.995 0 .183.03.366.107.628l1.41 7.575-.28.085c-.173.05-.3.1-.382.137-1.12.634-1.815 1.81-1.815 3.073 0 1.27.675 2.423 1.812 3.07.09.05.27.104.393.142l.274.09-1.422 7.607c-.068.224-.1.407-.1.594 0 1.1.85 1.992 1.892 1.992.195 0 .346 0 .346-.556zm26.503-82.396l9.982 5.99 8.997-5.396c-1.115-12.123-9.375-26.176-29.07-26.176-18.476 0-27.938 13.526-28.956 26.172l9 5.4 9.986-5.99 10.03 5.993 10.03-5.992zm19.374 6.478c-.333 3.36-1.192 6.6-2.566 9.648-.684 1.528-1.5 3.036-2.427 4.49l-21.335 37.56h-6.15l-21.338-37.56c-.963-1.508-1.775-3.016-2.43-4.49-1.363-3.08-2.226-6.326-2.558-9.648l9.383 5.633 9.986-5.982 10.03 5.98 10.033-5.98 9.98 5.98 9.39-5.632zm-14.183 24.73c-5.52 4.49-11.074 7.207-13.703 8.358-.724.325-1.227.527-1.458.603l-.063.025-.062-.025c-.23-.076-.725-.278-1.45-.603-2.638-1.15-8.2-3.876-13.713-8.37l13.648 24.026h3.154l13.647-24.014zM178.603 16.4L164.157.31v13.268l3.544 1.1v1.36h-8.383v-1.4l2.8-.75V-2.166l-2.92-1.185v-1.36h5.335l13.064 14.667V-2.166l-3.584-1.225v-1.32h8.383v1.363l-2.757.827v15.215l.12 3.295-1.155.41zM97.22 5.527c0-3.163-1.03-5.878-2.998-7.842C92.277-4.272 89.607-5.3 86.51-5.3c-6.23 0-10.743 4.77-10.743 11.34 0 3.146 1.032 5.838 3 7.79 1.95 1.937 4.625 2.96 7.743 2.96 6.207 0 10.71-4.735 10.71-11.263zM91.196-.626c1.328 1.91 2.06 4.515 2.06 7.337 0 6.157-3.06 8.352-5.92 8.352-2.477 0-4.52-1.225-5.908-3.55-1.123-1.888-1.772-4.44-1.772-7.005C79.655-.545 82-3.69 85.76-3.69c2.136-.004 4.067 1.085 5.435 3.064zm47.502 6.153c0-3.163-1.036-5.878-3.003-7.842-1.94-1.957-4.615-2.984-7.712-2.984-6.225 0-10.74 4.77-10.74 11.34 0 3.147 1.033 5.84 3.004 7.792 1.948 1.936 4.626 2.96 7.736 2.96 6.215-.002 10.715-4.737 10.715-11.265zm-6.024-6.153C134 1.284 134.73 3.89 134.73 6.71c0 6.157-3.056 8.352-5.918 8.352-2.476 0-4.52-1.225-5.907-3.55-1.122-1.888-1.77-4.44-1.77-7.005 0-5.052 2.34-8.197 6.108-8.197 2.125-.004 4.056 1.085 5.43 3.064zm-77.85 9.35H53.54l-3.074 5.51h-7.07v-16.79l3.393-.79V-4.71h-9.77v1.364l2.797.827v16.407l-2.797.75v1.4h16.492l1.31-7.313zm-38.186 0h-1.285l-3.076 5.51H5.208v-16.79l3.39-.79V-4.71H-1.17v1.364l2.796.827v16.407l-2.795.75v1.4h16.49l1.317-7.313zm-39.634.036c0-2.194-.917-3.92-2.72-5.13-1.523-1.02-3.65-1.63-6.143-1.76v-.014c2.854-.262 7.598-1.417 7.598-6.174 0-3.917-3.54-5.987-10.245-5.987l-.383.004-9.134.116v1.324l3.35 1.026v21.606l-3.35.902v1.364l9.682.155.403.003c6.748.005 10.943-2.845 10.943-7.436zm-9.852-5.758c3.61.615 5.76 2.885 5.76 6.068 0 3.7-2.834 5.64-5.635 5.64-1.95 0-3.506-.717-4.06-1.855V3.002h3.936zm-3.566-11.897c5.532 0 8.224 1.64 8.224 5.01 0 4.563-4.894 5.156-8.594 5.2V-8.892l.37-.005z" fill="#fff"/></svg>